<svg xmlns="http://www.w3.org/2000/svg" xmlns:xlink="http://www.w3.org/1999/xlink" viewBox="137.3795928955078 12.159605026245117 213.6204071044922 172.84039306640625" width="247.18805982166222" height="200"><path d="M 232.000,24.000 C 228.337,20.531 228.000,21.500 224.000,19.000" stroke-width="4.753" stroke="black" fill="none" stroke-linecap="round"></path><path d="M 224.000,19.000 C 219.518,18.181 219.837,17.531 215.000,18.000" stroke-width="3.939" stroke="black" fill="none" stroke-linecap="round"></path><path d="M 215.000,18.000 C 206.618,16.280 207.018,17.681 199.000,18.000" stroke-width="3.077" stroke="black" fill="none" stroke-linecap="round"></path><path d="M 199.000,18.000 C 190.331,20.108 191.118,19.780 184.000,25.000" stroke-width="2.914" stroke="black" fill="none" stroke-linecap="round"></path><path d="M 184.000,25.000 C 179.585,29.571 179.331,28.608 177.000,35.000" stroke-width="3.157" stroke="black" fill="none" stroke-linecap="round"></path><path d="M 177.000,35.000 C 174.252,40.446 174.585,40.071 174.000,46.000" stroke-width="3.301" stroke="black" fill="none" stroke-linecap="round"></path><path d="M 174.000,46.000 C 173.772,52.049 173.752,51.446 176.000,57.000" stroke-width="3.308" stroke="black" fill="none" stroke-linecap="round"></path><path d="M 176.000,57.000 C 178.895,62.151 178.272,62.049 183.000,66.000" stroke-width="3.349" stroke="black" fill="none" stroke-linecap="round"></path><path d="M 183.000,66.000 C 187.166,69.710 186.895,69.651 192.000,72.000" stroke-width="3.411" stroke="black" fill="none" stroke-linecap="round"></path><path d="M 192.000,72.000 C 196.912,74.102 196.666,74.210 202.000,75.000" stroke-width="3.406" stroke="black" fill="none" stroke-linecap="round"></path><path d="M 202.000,75.000 C 205.529,75.289 205.412,75.602 209.000,75.000" stroke-width="3.791" stroke="black" fill="none" stroke-linecap="round"></path><path d="M 209.000,75.000 C 211.828,75.185 211.529,74.789 214.000,74.000" stroke-width="4.151" stroke="black" fill="none" stroke-linecap="round"></path><path d="M 214.000,74.000 C 217.627,72.020 217.328,72.185 220.000,69.000" stroke-width="3.884" stroke="black" fill="none" stroke-linecap="round"></path><path d="M 220.000,69.000 C 223.463,64.830 223.127,65.020 225.000,60.000" stroke-width="3.609" stroke="black" fill="none" stroke-linecap="round"></path><path d="M 225.000,60.000 C 226.758,53.531 226.963,53.830 227.000,47.000" stroke-width="3.227" stroke="black" fill="none" stroke-linecap="round"></path><path d="M 227.000,47.000 C 226.945,39.929 227.258,40.031 226.000,33.000" stroke-width="3.124" stroke="black" fill="none" stroke-linecap="round"></path><path d="M 226.000,33.000 C 225.049,24.370 225.445,28.929 224.000,25.000" stroke-width="3.561" stroke="black" fill="none" stroke-linecap="round"></path><path d="M 224.000,25.000 C 221.802,30.386 222.549,25.870 221.000,36.000" stroke-width="4.589" stroke="black" fill="none" stroke-linecap="round"></path><path d="M 221.000,36.000 C 219.788,44.510 219.802,44.386 220.000,53.000" stroke-width="3.251" stroke="black" fill="none" stroke-linecap="round"></path><path d="M 220.000,53.000 C 220.792,64.521 220.288,64.510 222.000,76.000" stroke-width="2.524" stroke="black" fill="none" stroke-linecap="round"></path><path d="M 222.000,76.000 C 224.167,92.982 223.792,93.021 226.000,110.000" stroke-width="2.025" stroke="black" fill="none" stroke-linecap="round"></path><path d="M 226.000,110.000 C 227.615,125.490 227.667,125.482 229.000,141.000" stroke-width="1.942" stroke="black" fill="none" stroke-linecap="round"></path><path d="M 229.000,141.000 C 230.038,153.497 230.115,153.490 231.000,166.000" stroke-width="2.162" stroke="black" fill="none" stroke-linecap="round"></path><path d="M 231.000,166.000 C 231.012,177.695 231.538,172.997 232.000,180.000" stroke-width="2.733" stroke="black" fill="none" stroke-linecap="round"></path><path d="M 232.000,180.000 C 233.404,176.575 232.512,181.195 234.000,173.000" stroke-width="4.238" stroke="black" fill="none" stroke-linecap="round"></path><path d="M 234.000,173.000 C 235.000,167.503 234.904,167.575 235.000,162.000" stroke-width="3.557" stroke="black" fill="none" stroke-linecap="round"></path><path d="M 235.000,162.000 C 235.402,155.308 235.000,155.503 234.000,149.000" stroke-width="3.224" stroke="black" fill="none" stroke-linecap="round"></path><path d="M 234.000,149.000 C 232.396,141.508 232.402,141.808 229.000,135.000" stroke-width="3.002" stroke="black" fill="none" stroke-linecap="round"></path><path d="M 229.000,135.000 C 225.891,130.134 226.396,130.008 222.000,126.000" stroke-width="3.248" stroke="black" fill="none" stroke-linecap="round"></path><path d="M 222.000,126.000 C 217.951,121.301 217.891,121.634 213.000,118.000" stroke-width="3.279" stroke="black" fill="none" stroke-linecap="round"></path><path d="M 213.000,118.000 C 208.620,115.680 208.951,115.301 204.000,114.000" stroke-width="3.418" stroke="black" fill="none" stroke-linecap="round"></path><path d="M 204.000,114.000 C 197.514,111.954 197.620,111.680 191.000,110.000" stroke-width="3.207" stroke="black" fill="none" stroke-linecap="round"></path><path d="M 191.000,110.000 C 182.551,107.311 182.514,107.454 174.000,105.000" stroke-width="2.876" stroke="black" fill="none" stroke-linecap="round"></path><path d="M 174.000,105.000 C 164.050,102.269 164.051,102.311 154.000,100.000" stroke-width="2.570" stroke="black" fill="none" stroke-linecap="round"></path><path d="M 154.000,100.000 C 145.725,96.486 148.550,98.769 143.000,98.000" stroke-width="3.096" stroke="black" fill="none" stroke-linecap="round"></path><path d="M 143.000,98.000 C 142.487,102.846 141.225,98.986 145.000,105.000" stroke-width="4.258" stroke="black" fill="none" stroke-linecap="round"></path><path d="M 145.000,105.000 C 150.773,108.221 149.487,108.846 157.000,110.000" stroke-width="3.378" stroke="black" fill="none" stroke-linecap="round"></path><path d="M 157.000,110.000 C 168.362,113.422 168.273,113.221 180.000,115.000" stroke-width="2.594" stroke="black" fill="none" stroke-linecap="round"></path><path d="M 180.000,115.000 C 197.967,117.288 197.862,117.422 216.000,118.000" stroke-width="1.982" stroke="black" fill="none" stroke-linecap="round"></path><path d="M 216.000,118.000 C 236.125,119.549 235.967,118.788 256.000,118.000" stroke-width="1.704" stroke="black" fill="none" stroke-linecap="round"></path><path d="M 256.000,118.000 C 274.685,115.840 274.625,116.549 293.000,112.000" stroke-width="1.739" stroke="black" fill="none" stroke-linecap="round"></path><path d="M 293.000,112.000 C 305.570,108.729 305.685,109.340 318.000,105.000" stroke-width="2.054" stroke="black" fill="none" stroke-linecap="round"></path><path d="M 318.000,105.000 C 325.876,103.238 325.570,102.729 333.000,100.000" stroke-width="2.541" stroke="black" fill="none" stroke-linecap="round"></path><path d="M 333.000,100.000 C 336.254,97.017 336.876,98.238 340.000,95.000" stroke-width="3.274" stroke="black" fill="none" stroke-linecap="round"></path><path d="M 340.000,95.000 C 343.143,92.560 342.754,93.517 346.000,93.000" stroke-width="4.168" stroke="black" fill="none" stroke-linecap="round"></path></svg>